<svg version="1.1" viewBox="0.0 0.0 297.59317585301835 288.83989501312334" fill="none" stroke="none" stroke-linecap="square" stroke-miterlimit="10" xmlns:xlink="http://www.w3.org/1999/xlink" xmlns="http://www.w3.org/2000/svg"><clipPath id="p.0"><path d="m0 0l297.59317 0l0 288.8399l-297.59317 0l0 -288.8399z" clip-rule="nonzero"/></clipPath><g clip-path="url(#p.0)"><path fill="#000000" fill-opacity="0.0" d="m0 0l297.59317 0l0 288.8399l-297.59317 0z" fill-rule="evenodd"/><path fill="#666666" d="m185.60983 93.38788l-6.0413055 0c-0.9777832 0 -1.763504 1.1702042 -0.9777832 2.1411133l1.1698456 1.5636826c-8.7738495 6.8219376 -19.695343 11.1143875 -31.59462 11.1143875c-12.676254 0 -24.374725 -4.6808167 -33.340652 -12.478775c-1.1698456 -1.1702042 -2.5404892 -2.146225 -3.5095367 -3.5106125c-1.1698532 -1.1702042 -2.1476364 -2.3404083 -3.1254196 -3.7047958c-0.77698517 -0.9760208 -1.562706 -2.146225 -2.3396912 -3.1222534l-3.116684 2.340416l-3.5095444 2.5345917c-0.9777832 -1.3643875 -1.9555664 -2.5345917 -3.125412 -3.7048035c-1.1698456 -1.1702042 -2.3396988 -2.3404083 -3.5095444 -3.5106125c-9.943703 -8.968163 -23.012825 -14.430817 -37.44385 -14.236633c-28.661268 0.38835907 -52.651875 23.010612 -54.406647 51.483894c-1.946836 31.983894 23.405682 58.699303 54.99157 58.699303c0.9777832 0 1.9555664 0 2.9333496 0c1.1698456 0 2.1389008 -1.3643951 1.7547722 -2.5345917l0 0c-0.20079803 -0.7818451 -1.1698494 -1.3643951 -1.9555664 -1.3643951c-0.776989 0 -1.7547722 0 -2.5317612 0c-30.223972 0 -54.406643 -26.327042 -50.897102 -57.14073c2.7325544 -23.598274 21.642181 -42.51062 45.23993 -45.04521c15.015953 -1.5636749 29.054123 3.311325 39.390686 12.478775c1.1698532 1.1702042 2.3396988 2.1462326 3.5095444 3.51062c1.1698456 1.1702042 2.1476288 2.3404083 3.125412 3.7047958c0.7769928 0.9760208 1.553978 2.146225 2.3396988 3.1222458l3.116684 -2.3404083l3.5095444 -2.5345917c0.9777832 1.3643875 2.1476288 2.5345917 3.116684 3.7047958c1.1698456 1.1702042 2.3484192 2.3404083 3.5182724 3.5106125c9.742905 8.773979 22.619957 14.037346 36.658134 14.037346c12.868317 0 24.767593 -4.4815216 34.126373 -11.896225l1.1698456 1.3643875c0.5849304 0.78183746 1.9468384 0.5876541 2.1476288 -0.58255005l1.3619232 -5.851021c-0.39286804 -0.97602844 -0.9777832 -1.7527542 -1.754776 -1.7527542z" fill-rule="evenodd"/><path stroke="#666666" stroke-width="1.0" stroke-linejoin="round" stroke-linecap="butt" d="m185.60983 93.38788l-6.0413055 0c-0.9777832 0 -1.763504 1.1702042 -0.9777832 2.1411133l1.1698456 1.5636826c-8.7738495 6.8219376 -19.695343 11.1143875 -31.59462 11.1143875c-12.676254 0 -24.374725 -4.6808167 -33.340652 -12.478775c-1.1698456 -1.1702042 -2.5404892 -2.146225 -3.5095367 -3.5106125c-1.1698532 -1.1702042 -2.1476364 -2.3404083 -3.1254196 -3.7047958c-0.77698517 -0.9760208 -1.562706 -2.146225 -2.3396912 -3.1222534l-3.116684 2.340416l-3.5095444 2.5345917c-0.9777832 -1.3643875 -1.9555664 -2.5345917 -3.125412 -3.7048035c-1.1698456 -1.1702042 -2.3396988 -2.3404083 -3.5095444 -3.5106125c-9.943703 -8.968163 -23.012825 -14.430817 -37.44385 -14.236633c-28.661268 0.38835907 -52.651875 23.010612 -54.406647 51.483894c-1.946836 31.983894 23.405682 58.699303 54.99157 58.699303c0.9777832 0 1.9555664 0 2.9333496 0c1.1698456 0 2.1389008 -1.3643951 1.7547722 -2.5345917l0 0c-0.20079803 -0.7818451 -1.1698494 -1.3643951 -1.9555664 -1.3643951c-0.776989 0 -1.7547722 0 -2.5317612 0c-30.223972 0 -54.406643 -26.327042 -50.897102 -57.14073c2.7325544 -23.598274 21.642181 -42.51062 45.23993 -45.04521c15.015953 -1.5636749 29.054123 3.311325 39.390686 12.478775c1.1698532 1.1702042 2.3396988 2.1462326 3.5095444 3.51062c1.1698456 1.1702042 2.1476288 2.3404083 3.125412 3.7047958c0.7769928 0.9760208 1.553978 2.146225 2.3396988 3.1222458l3.116684 -2.3404083l3.5095444 -2.5345917c0.9777832 1.3643875 2.1476288 2.5345917 3.116684 3.7047958c1.1698456 1.1702042 2.3484192 2.3404083 3.5182724 3.5106125c9.742905 8.773979 22.619957 14.037346 36.658134 14.037346c12.868317 0 24.767593 -4.4815216 34.126373 -11.896225l1.1698456 1.3643875c0.5849304 0.78183746 1.9468384 0.5876541 2.1476288 -0.58255005l1.3619232 -5.851021c-0.39286804 -0.97602844 -0.9777832 -1.7527542 -1.754776 -1.7527542z" fill-rule="evenodd"/><path fill="#4a86e8" d="m217.87436 170.12651l-1.7554932 -5.851181c-0.39076233 -0.9711914 -1.7554932 -1.1718445 -2.3387146 -0.38526917l-1.3647461 1.9423676c-14.236404 -9.158035 -23.597092 -24.961853 -23.597092 -43.093307c0 -6.8303986 1.3647308 -13.460136 3.9017334 -19.503952c0.58322144 -1.557106 1.3647461 -3.1222382 2.1462555 -4.486717c0.77568054 -1.3644714 1.5572052 -2.9215775 2.5311737 -4.286049c0.78152466 -1.1718445 1.563034 -2.1430283 2.3445587 -3.1222382l-3.1202393 -2.343689l-3.5109863 -2.5282898c0.97398376 -1.3644714 1.7554932 -2.7369766 2.5311737 -4.101448c0.78152466 -1.3644714 1.563034 -2.9215775 2.1462555 -4.4786835c3.3185272 -7.416321 5.0740204 -15.795799 4.683258 -24.576591c-1.1722717 -27.883432 -23.795395 -50.89489 -51.67917 -52.652653c-31.983818 -1.9503956 -58.50286 23.597378 -58.50286 54.996338c0 7.015003 1.3647385 13.644741 3.703453 19.889217c0.3907547 1.1718445 1.9537888 1.557106 2.927765 0.7785568l0 0c0.781517 -0.58592224 0.97397614 -1.3644791 0.58322144 -2.3356628c-2.729477 -7.21566 -3.9017487 -15.217899 -3.1202316 -23.597378c2.3387146 -23.798035 21.258392 -43.101334 45.047966 -45.83028c30.811539 -3.5075016 56.93982 20.667772 56.93982 50.89489c0 7.0230293 -1.3647308 13.652771 -4.094208 19.897247c-0.58322144 1.557106 -1.3647308 2.9215775 -2.1404266 4.4867096c-0.7815094 1.3644714 -1.5630188 2.9215775 -2.5370026 4.093422c-0.7815094 1.1718445 -1.563034 2.1430283 -2.3387146 3.1222382l3.120224 2.3356628l3.5051575 2.536316c-0.9739685 1.3644714 -1.7496643 2.7289429 -2.5311737 4.093422c-0.7815094 1.3644714 -1.563034 2.9296036 -2.1462555 4.4867096c-2.927765 6.629738 -4.484955 14.038033 -4.484955 21.839615c0 19.50396 10.142197 36.471596 25.352585 46.416206l-0.7815094 1.1718445c-0.58322144 0.97117615 0.1924591 2.1430206 1.1722717 1.9503937l6.0421753 -0.58592224c1.1722717 0.3852539 1.7554932 -0.3932953 1.3647308 -1.1718445z" fill-rule="evenodd"/><path stroke="#4a86e8" stroke-width="1.0" stroke-linejoin="round" stroke-linecap="butt" d="m217.87436 170.12651l-1.7554932 -5.851181c-0.39076233 -0.9711914 -1.7554932 -1.1718445 -2.3387146 -0.38526917l-1.3647461 1.9423676c-14.236404 -9.158035 -23.597092 -24.961853 -23.597092 -43.093307c0 -6.8303986 1.3647308 -13.460136 3.9017334 -19.503952c0.58322144 -1.557106 1.3647461 -3.1222382 2.1462555 -4.486717c0.77568054 -1.3644714 1.5572052 -2.9215775 2.5311737 -4.286049c0.78152466 -1.1718445 1.563034 -2.1430283 2.3445587 -3.1222382l-3.1202393 -2.343689l-3.5109863 -2.5282898c0.97398376 -1.3644714 1.7554932 -2.7369766 2.5311737 -4.101448c0.78152466 -1.3644714 1.563034 -2.9215775 2.1462555 -4.4786835c3.3185272 -7.416321 5.0740204 -15.795799 4.683258 -24.576591c-1.1722717 -27.883432 -23.795395 -50.89489 -51.67917 -52.652653c-31.983818 -1.9503956 -58.50286 23.597378 -58.50286 54.996338c0 7.015003 1.3647385 13.644741 3.703453 19.889217c0.3907547 1.1718445 1.9537888 1.557106 2.927765 0.7785568l0 0c0.781517 -0.58592224 0.97397614 -1.3644791 0.58322144 -2.3356628c-2.729477 -7.21566 -3.9017487 -15.217899 -3.1202316 -23.597378c2.3387146 -23.798035 21.258392 -43.101334 45.047966 -45.83028c30.811539 -3.5075016 56.93982 20.667772 56.93982 50.89489c0 7.0230293 -1.3647308 13.652771 -4.094208 19.897247c-0.58322144 1.557106 -1.3647308 2.9215775 -2.1404266 4.4867096c-0.7815094 1.3644714 -1.5630188 2.9215775 -2.5370026 4.093422c-0.7815094 1.1718445 -1.563034 2.1430283 -2.3387146 3.1222382l3.120224 2.3356628l3.5051575 2.536316c-0.9739685 1.3644714 -1.7496643 2.7289429 -2.5311737 4.093422c-0.7815094 1.3644714 -1.563034 2.9296036 -2.1462555 4.4867096c-2.927765 6.629738 -4.484955 14.038033 -4.484955 21.839615c0 19.50396 10.142197 36.471596 25.352585 46.416206l-0.7815094 1.1718445c-0.58322144 0.97117615 0.1924591 2.1430206 1.1722717 1.9503937l6.0421753 -0.58592224c1.1722717 0.3852539 1.7554932 -0.3932953 1.3647308 -1.1718445z" fill-rule="evenodd"/><path fill="#93c47d" d="m241.20543 68.808586c-13.454849 -0.19178009 -25.940216 4.6839447 -35.690292 12.67984c-0.96946716 0.78188324 -0.96946716 2.3382797 0.20082092 3.120163l0 0c0.77557373 0.5827255 1.7519684 0.39094543 2.3336487 0c10.144791 -8.386833 23.599625 -13.0634 38.224747 -11.307846c23.59964 2.5300674 42.5112 21.450241 45.24649 45.046974c3.5108643 30.810745 -20.670471 57.136703 -50.904022 57.136703c-1.3641815 0 -2.728363 0 -4.0925446 -0.19178772c-1.7519684 -0.19915771 -3.3169708 -0.39094543 -4.875046 -0.59010315c-1.558075 -0.19178772 -3.1230774 -0.5827179 -4.6811523 -1.165451c-1.1702728 -0.39094543 -2.5344543 -0.78189087 -3.7047424 -1.172821l-1.1702881 3.7028809l-1.558075 4.6839447c-1.558075 -0.39094543 -3.1230774 -0.7818756 -4.6811523 -1.172821c-1.558075 -0.39094543 -3.3169708 -0.58273315 -4.875046 -0.7745209c-1.7588806 -0.19915771 -3.3169556 -0.19915771 -5.068924 -0.19915771c-25.746323 0 -47.393158 17.747345 -53.43849 41.735016l-2.3405762 0c-0.96946716 0 -1.7519684 1.1728363 -0.96946716 1.9473419l3.5108643 4.8757324c0.38778687 0.59010315 1.3641815 0.7818756 1.9458618 0l3.8986511 -4.484787c0.78248596 -0.78189087 0.20080566 -2.1464996 -0.9694824 -2.1464996l-1.1702728 0c5.8444977 -21.841171 25.73938 -38.02475 49.532913 -38.02475c1.3641815 0 2.5344543 0 3.8986359 0.19178772c1.7519684 0.19915771 3.3169708 0.39094543 4.875046 0.59010315c1.558075 0.19178772 3.1230774 0.58273315 4.875046 0.97366333c1.1702881 0.39094543 2.5344696 0.78189087 3.7047577 1.1654663l1.1702881 -3.702896l1.558075 -4.484787c1.5649872 0.39094543 3.1230621 0.78189087 4.681137 1.1728363c1.5650024 0.39093018 3.3169708 0.5827179 4.875046 0.7745056c1.7588959 0.19915771 3.5108643 0.19915771 5.4636536 0.19915771c31.59082 0 56.942413 -26.716904 54.989624 -58.700478c-2.13974 -28.863396 -26.127167 -51.486465 -54.79573 -51.87741z" fill-rule="evenodd"/><path stroke="#93c47d" stroke-width="1.0" stroke-linejoin="round" stroke-linecap="butt" d="m241.20543 68.808586c-13.454849 -0.19178009 -25.940216 4.6839447 -35.690292 12.67984c-0.96946716 0.78188324 -0.96946716 2.3382797 0.20082092 3.120163l0 0c0.77557373 0.5827255 1.7519684 0.39094543 2.3336487 0c10.144791 -8.386833 23.599625 -13.0634 38.224747 -11.307846c23.59964 2.5300674 42.5112 21.450241 45.24649 45.046974c3.5108643 30.810745 -20.670471 57.136703 -50.904022 57.136703c-1.3641815 0 -2.728363 0 -4.0925446 -0.19178772c-1.7519684 -0.19915771 -3.3169708 -0.39094543 -4.875046 -0.59010315c-1.558075 -0.19178772 -3.1230774 -0.5827179 -4.6811523 -1.165451c-1.1702728 -0.39094543 -2.5344543 -0.78189087 -3.7047424 -1.172821l-1.1702881 3.7028809l-1.558075 4.6839447c-1.558075 -0.39094543 -3.1230774 -0.7818756 -4.6811523 -1.172821c-1.558075 -0.39094543 -3.3169708 -0.58273315 -4.875046 -0.7745209c-1.7588806 -0.19915771 -3.3169556 -0.19915771 -5.068924 -0.19915771c-25.746323 0 -47.393158 17.747345 -53.43849 41.735016l-2.3405762 0c-0.96946716 0 -1.7519684 1.1728363 -0.96946716 1.9473419l3.5108643 4.8757324c0.38778687 0.59010315 1.3641815 0.7818756 1.9458618 0l3.8986511 -4.484787c0.78248596 -0.78189087 0.20080566 -2.1464996 -0.9694824 -2.1464996l-1.1702728 0c5.8444977 -21.841171 25.73938 -38.02475 49.532913 -38.02475c1.3641815 0 2.5344543 0 3.8986359 0.19178772c1.7519684 0.19915771 3.3169708 0.39094543 4.875046 0.59010315c1.558075 0.19178772 3.1230774 0.58273315 4.875046 0.97366333c1.1702881 0.39094543 2.5344696 0.78189087 3.7047577 1.1654663l1.1702881 -3.702896l1.558075 -4.484787c1.5649872 0.39094543 3.1230621 0.78189087 4.681137 1.1728363c1.5650024 0.39093018 3.3169708 0.5827179 4.875046 0.7745056c1.7588959 0.19915771 3.5108643 0.19915771 5.4636536 0.19915771c31.59082 0 56.942413 -26.716904 54.989624 -58.700478c-2.13974 -28.863396 -26.127167 -51.486465 -54.79573 -51.87741z" fill-rule="evenodd"/><path fill="#c13018" d="m232.52748 187.21594l0 0c-0.19354248 0.782959 0 1.7536163 0.78253174 2.3381653c15.019699 9.556412 24.763565 26.717194 23.593948 46.221497c-1.3631287 25.3497 -21.641815 46.01773 -46.800842 47.969757c-26.135101 2.145111 -48.559464 -15.407166 -54.21393 -39.38936c-0.3870697 -1.5605621 -0.5805969 -3.3195496 -0.9760742 -4.8747406c-0.19352722 -1.5605621 -0.38705444 -3.3195343 -0.38705444 -4.8800964c0 -0.58454895 0 -1.3621368 0 -1.9466858c0 -0.5845337 0 -1.3674927 0 -1.9520264l-3.9042816 0l-5.4609375 0c0 -1.5605621 -0.19354248 -3.3141785 -0.3870697 -4.8747406c-0.19352722 -1.5605621 -0.38705444 -3.3141785 -0.78253174 -4.8747406c-5.4609375 -24.765152 -27.489822 -43.486496 -53.81846 -43.486496c-0.78253937 0 -1.5650787 0 -2.339203 0l-0.19352722 -2.1450958c0 -0.97602844 -1.3715439 -1.5605621 -2.145668 -0.97602844l-4.484871 4.0971375c-0.58901215 0.58454895 -0.58901215 1.5605621 0.19352722 1.9466858l4.871933 3.5125885c0.78253937 0.58454895 2.145668 0 1.9521408 -1.1690674l0 -1.5605621c0.78253937 0 1.5566635 0 2.145668 0c24.182968 0 44.461647 16.962357 49.922585 39.587784c0.3870697 1.5605621 0.5805969 3.3141785 0.9760742 4.8747406c0.19352722 1.5605469 0.3870697 3.3141632 0.3870697 4.8747253c0 0.58454895 0 1.3621368 0 1.9466858c0 0.5898895 0 1.3674927 0 1.9520264l3.9042664 0l5.4609528 0c0 1.5605621 0.19352722 3.3141785 0.38705444 4.8747406c0.19352722 1.5605621 0.3870697 3.3141785 0.782547 4.8747406c5.6544647 26.132645 30.03096 45.438522 58.109787 43.29344c27.102753 -2.145111 48.75299 -24.180634 50.70514 -51.09088c1.3631287 -21.064865 -9.171692 -39.780838 -25.546112 -50.313263c-0.78253174 -0.58454895 -2.3391876 0 -2.734665 1.1690674z" fill-rule="evenodd"/><path stroke="#c13018" stroke-width="1.0" stroke-linejoin="round" stroke-linecap="butt" d="m232.52748 187.21594l0 0c-0.19354248 0.782959 0 1.7536163 0.78253174 2.3381653c15.019699 9.556412 24.763565 26.717194 23.593948 46.221497c-1.3631287 25.3497 -21.641815 46.01773 -46.800842 47.969757c-26.135101 2.145111 -48.559464 -15.407166 -54.21393 -39.38936c-0.3870697 -1.5605621 -0.5805969 -3.3195496 -0.9760742 -4.8747406c-0.19352722 -1.5605621 -0.38705444 -3.3195343 -0.38705444 -4.8800964c0 -0.58454895 0 -1.3621368 0 -1.9466858c0 -0.5845337 0 -1.3674927 0 -1.9520264l-3.9042816 0l-5.4609375 0c0 -1.5605621 -0.19354248 -3.3141785 -0.3870697 -4.8747406c-0.19352722 -1.5605621 -0.38705444 -3.3141785 -0.78253174 -4.8747406c-5.4609375 -24.765152 -27.489822 -43.486496 -53.81846 -43.486496c-0.78253937 0 -1.5650787 0 -2.339203 0l-0.19352722 -2.1450958c0 -0.97602844 -1.3715439 -1.5605621 -2.145668 -0.97602844l-4.484871 4.0971375c-0.58901215 0.58454895 -0.58901215 1.5605621 0.19352722 1.9466858l4.871933 3.5125885c0.78253937 0.58454895 2.145668 0 1.9521408 -1.1690674l0 -1.5605621c0.78253937 0 1.5566635 0 2.145668 0c24.182968 0 44.461647 16.962357 49.922585 39.587784c0.3870697 1.5605621 0.5805969 3.3141785 0.9760742 4.8747406c0.19352722 1.5605469 0.3870697 3.3141632 0.3870697 4.8747253c0 0.58454895 0 1.3621368 0 1.9466858c0 0.5898895 0 1.3674927 0 1.9520264l3.9042664 0l5.4609528 0c0 1.5605621 0.19352722 3.3141785 0.38705444 4.8747406c0.19352722 1.5605621 0.3870697 3.3141785 0.782547 4.8747406c5.6544647 26.132645 30.03096 45.438522 58.109787 43.29344c27.102753 -2.145111 48.75299 -24.180634 50.70514 -51.09088c1.3631287 -21.064865 -9.171692 -39.780838 -25.546112 -50.313263c-0.78253174 -0.58454895 -2.3391876 0 -2.734665 1.1690674z" fill-rule="evenodd"/><path fill="#ffcc4c" d="m138.80788 246.81053c-6.2376404 23.204056 -28.275658 39.97444 -53.82202 37.82689c-25.15429 -2.1386108 -45.43557 -22.811981 -46.800213 -48.163574c-1.171154 -19.88919 9.165527 -37.443726 24.960793 -46.996246c1.3646431 -0.7841644 2.9227867 -1.5594177 4.287426 -2.3435822c1.5632324 -0.7752533 2.9278793 -1.3633728 4.486023 -1.9514923c1.1711502 -0.39207458 2.535797 -0.7752533 3.7069473 -1.1673279l-1.1711502 -3.706955l-1.5581436 -4.482193c1.5581436 -0.5881195 3.1162796 -1.176239 4.4860153 -1.9514923c1.5581436 -0.7841644 2.9227905 -1.5594177 4.2874374 -2.3435822c16.380836 -9.552521 27.49659 -27.294174 27.49659 -47.575462c0 -7.0218124 -1.3646469 -13.651543 -3.7069473 -19.702065l1.9502182 -0.9712982c0.9776535 -0.39207458 0.9776535 -1.7554474 0 -2.3435745l-5.45858 -2.726738c-0.7790756 -0.3920822 -1.5581436 0 -1.7567291 0.77524567l-1.5581436 5.8544846c-0.19348907 0.9712906 0.7790756 1.9514923 1.7567291 1.5594101l1.3646469 -0.5881195c2.143715 5.6584396 3.314865 11.70005 3.314865 18.142654c0 18.525826 -9.944595 34.90412 -24.767296 43.877434c-1.3646469 0.7752533 -2.9227905 1.5594025 -4.2925262 2.3346558c-1.558136 0.7841644 -2.922783 1.3633728 -4.4809265 1.9514923c-1.1711502 0.39208984 -2.535797 0.7841644 -3.7069473 1.1673431l1.1711502 3.7069397l1.5581436 4.4822083c-1.5581436 0.5881195 -3.121376 1.176239 -4.4860153 1.7554474c-1.5581436 0.7841644 -2.9227867 1.3722839 -4.486019 2.3435822c-17.546898 10.14064 -29.05473 29.637756 -27.690086 51.48735c1.7567291 27.09816 23.59615 49.134872 50.705746 51.08638c27.298004 2.147522 51.092743 -15.986206 57.52388 -40.758606c0.39208984 -1.1673279 -0.58047485 -2.3346558 -1.9502106 -2.3346558l0 0c-0.3869934 0.19602966 -1.1660614 0.77523804 -1.3646545 1.7554474z" fill-rule="evenodd"/><path stroke="#ffcc4c" stroke-width="1.0" stroke-linejoin="round" stroke-linecap="butt" d="m138.80788 246.81053c-6.2376404 23.204056 -28.275658 39.97444 -53.82202 37.82689c-25.15429 -2.1386108 -45.43557 -22.811981 -46.800213 -48.163574c-1.171154 -19.88919 9.165527 -37.443726 24.960793 -46.996246c1.3646431 -0.7841644 2.9227867 -1.5594177 4.287426 -2.3435822c1.5632324 -0.7752533 2.9278793 -1.3633728 4.486023 -1.9514923c1.1711502 -0.39207458 2.535797 -0.7752533 3.7069473 -1.1673279l-1.1711502 -3.706955l-1.5581436 -4.482193c1.5581436 -0.5881195 3.1162796 -1.176239 4.4860153 -1.9514923c1.5581436 -0.7841644 2.9227905 -1.5594177 4.2874374 -2.3435822c16.380836 -9.552521 27.49659 -27.294174 27.49659 -47.575462c0 -7.0218124 -1.3646469 -13.651543 -3.7069473 -19.702065l1.9502182 -0.9712982c0.9776535 -0.39207458 0.9776535 -1.7554474 0 -2.3435745l-5.45858 -2.726738c-0.7790756 -0.3920822 -1.5581436 0 -1.7567291 0.77524567l-1.5581436 5.8544846c-0.19348907 0.9712906 0.7790756 1.9514923 1.7567291 1.5594101l1.3646469 -0.5881195c2.143715 5.6584396 3.314865 11.70005 3.314865 18.142654c0 18.525826 -9.944595 34.90412 -24.767296 43.877434c-1.3646469 0.7752533 -2.9227905 1.5594025 -4.2925262 2.3346558c-1.558136 0.7841644 -2.922783 1.3633728 -4.4809265 1.9514923c-1.1711502 0.39208984 -2.535797 0.7841644 -3.7069473 1.1673431l1.1711502 3.7069397l1.5581436 4.4822083c-1.5581436 0.5881195 -3.121376 1.176239 -4.4860153 1.7554474c-1.5581436 0.7841644 -2.9227867 1.3722839 -4.486019 2.3435822c-17.546898 10.14064 -29.05473 29.637756 -27.690086 51.48735c1.7567291 27.09816 23.59615 49.134872 50.705746 51.08638c27.298004 2.147522 51.092743 -15.986206 57.52388 -40.758606c0.39208984 -1.1673279 -0.58047485 -2.3346558 -1.9502106 -2.3346558l0 0c-0.3869934 0.19602966 -1.1660614 0.77523804 -1.3646545 1.7554474z" fill-rule="evenodd"/><path fill="#000000" fill-opacity="0.0" d="m136.05081 7.3588195l23.603867 0l0 28.094625l-23.603867 0z" fill-rule="evenodd"/><path fill="#000000" fill-opacity="0.0" d="m228.62775 77.0271l23.603867 0l0 28.094627l-23.603867 0z" fill-rule="evenodd"/><path fill="#000000" fill-opacity="0.0" d="m194.54991 186.2619l23.603867 0l0 28.09462l-23.603867 0z" fill-rule="evenodd"/><path fill="#000000" fill-opacity="0.0" d="m43.429024 77.0271l23.603867 0l0 28.094627l-23.603867 0z" fill-rule="evenodd"/><path fill="#000000" fill-opacity="0.0" d="m77.11502 186.2619l23.603867 0l0 28.09462l-23.603867 0z" fill-rule="evenodd"/><path fill="#000000" fill-opacity="0.0" d="m98.185036 38.5348l100.37795 0l0 33.92126l-100.37795 0z" fill-rule="evenodd"/><path fill="#000000" d="m112.73632 58.664177l0.421875 -1.078125q0.328125 0.234375 0.8125 0.40625q0.5 0.15625 0.875 0.15625q0.6875 0 1.09375 -0.375q0.421875 -0.375 0.421875 -0.953125q0 -0.4375 -0.234375 -0.8125q-0.21875 -0.375 -1.15625 -0.8125l-0.6875 -0.3125q-0.875 -0.421875 -1.234375 -0.984375q-0.34375 -0.5625 -0.34375 -1.34375q0 -0.96875 0.671875 -1.59375q0.6875 -0.640625 1.75 -0.640625q1.421875 0 1.984375 0.46875l-0.34375 1.015625q-0.234375 -0.171875 -0.71875 -0.328125q-0.484375 -0.15625 -0.890625 -0.15625q-0.59375 0 -0.9375 0.34375q-0.34375 0.328125 -0.34375 0.875q0 0.328125 0.125 0.59375q0.125 0.265625 0.34375 0.453125q0.21875 0.171875 0.890625 0.5l0.703125 0.34375q0.890625 0.40625 1.234375 0.984375q0.359375 0.578125 0.359375 1.46875q0 0.96875 -0.78125 1.640625q-0.765625 0.671875 -2.078125 0.671875q-1.140625 0 -1.9375 -0.53125zm7.1152344 -5.890625l0 4.0q0 1.453125 1.265625 1.453125q0.546875 0 1.0 -0.3125q0.46875 -0.3125 0.609375 -0.734375l0 -4.40625l1.109375 0l0 6.28125l-1.109375 0l0 -0.875q-0.1875 0.375 -0.75 0.6875q-0.5625 0.3125 -1.109375 0.3125q-1.03125 0 -1.578125 -0.59375q-0.546875 -0.59375 -0.546875 -1.6875l0 -4.125l1.109375 0zm5.0878906 5.90625l0.40625 -1.0625q0.921875 0.609375 1.5 0.609375q1.03125 0 1.03125 -0.859375q0 -0.625 -1.0 -1.0625q-0.765625 -0.359375 -1.03125 -0.53125q-0.265625 -0.1875 -0.46875 -0.421875q-0.203125 -0.234375 -0.296875 -0.484375q-0.09375 -0.265625 -0.09375 -0.5625q0 -0.78125 0.5625 -1.203125q0.5625 -0.4375 1.46875 -0.4375q0.6875 0 1.7343674 0.4375l-0.3125 1.03125q-0.6718674 -0.53125 -1.3437424 -0.53125q-0.390625 0 -0.671875 0.1875q-0.265625 0.1875 -0.265625 0.46875q0 0.609375 0.6875 0.921875l0.796875 0.359375q0.7343674 0.328125 1.0624924 0.765625q0.34375 0.421875 0.34375 1.0625q0 0.84375 -0.59375 1.328125q-0.5937424 0.484375 -1.6406174 0.484375q-1.0 0 -1.875 -0.5zm5.6699142 -5.015625l-0.71875 0l0 -0.890625l0.71875 0l0 -1.3125l1.109375 -0.421875l0 1.734375l1.734375 0l0 0.890625l-1.734375 0l0 3.109375q0 0.796875 0.265625 1.125q0.28125 0.328125 0.859375 0.328125q0.4375 0 0.890625 -0.203125l0.171875 0.96875q-0.703125 0.1875 -1.53125 0.1875q-0.734375 0 -1.25 -0.546875q-0.515625 -0.5625 -0.515625 -1.40625l0 -3.5625zm7.9140625 4.671875q-0.671875 0.84375 -2.046875 0.84375q-0.75 0 -1.296875 -0.53125q-0.53125 -0.546875 -0.53125 -1.34375q0 -0.953125 0.828125 -1.609375q0.84375 -0.671875 2.140625 -0.671875q0.34375 0 0.796875 0.15625q0 -1.515625 -1.359375 -1.515625q-1.046875 0 -1.609375 0.5625l-0.46875 -0.9375q0.3125 -0.265625 0.875 -0.4375q0.5625 -0.1875 1.078125 -0.1875q1.359375 0 1.96875 0.625q0.625 0.609375 0.625 1.96875l0 2.25q0 0.828125 0.5 1.09375l0 0.5625q-0.6875 0 -1.03125 -0.1875q-0.328125 -0.203125 -0.46875 -0.640625zm-0.109375 -2.359375q-0.53125 -0.125 -0.734375 -0.125q-0.84375 0 -1.390625 0.4375q-0.53125 0.4375 -0.53125 1.03125q0 0.96875 1.15625 0.96875q0.84375 0 1.5 -0.796875l0 -1.515625zm4.0078125 -5.578125q0.296875 0 0.484375 0.203125q0.203125 0.203125 0.203125 0.484375q0 0.296875 -0.203125 0.5q-0.1875 0.203125 -0.484375 0.203125q-0.28125 0 -0.484375 -0.203125q-0.203125 -0.203125 -0.203125 -0.5q0 -0.28125 0.203125 -0.484375q0.203125 -0.203125 0.484375 -0.203125zm-0.609375 8.65625l0 -5.34375l-0.859375 0l0 -0.9375l1.96875 0l0 6.28125l-1.109375 0zm6.75 0l0 -3.65625q0 -1.0 -0.3125 -1.390625q-0.296875 -0.40625 -1.0 -0.40625q-0.390625 0 -0.8125 0.234375q-0.40625 0.21875 -0.625 0.546875l0 4.671875l-1.109375 0l0 -6.28125l0.75 0l0.359375 0.8125q0.546875 -0.921875 1.796875 -0.921875q2.0625 0 2.0625 2.5l0 3.890625l-1.109375 0zm6.2441406 -0.71875q-0.671875 0.84375 -2.046875 0.84375q-0.75 0 -1.296875 -0.53125q-0.53125 -0.546875 -0.53125 -1.34375q0 -0.953125 0.828125 -1.609375q0.84375 -0.671875 2.140625 -0.671875q0.34375 0 0.796875 0.15625q0 -1.515625 -1.359375 -1.515625q-1.046875 0 -1.609375 0.5625l-0.46875 -0.9375q0.3125 -0.265625 0.875 -0.4375q0.5625 -0.1875 1.078125 -0.1875q1.359375 0 1.96875 0.625q0.625 0.609375 0.625 1.96875l0 2.25q0 0.828125 0.5 1.09375l0 0.5625q-0.6875 0 -1.03125 -0.1875q-0.328125 -0.203125 -0.46875 -0.640625zm-0.109375 -2.359375q-0.53125 -0.125 -0.734375 -0.125q-0.84375 0 -1.390625 0.4375q-0.53125 0.4375 -0.53125 1.03125q0 0.96875 1.15625 0.96875q0.84375 0 1.5 -0.796875l0 -1.515625zm3.8046875 2.625l-0.390625 0.578125l-0.546875 0l0 -8.96875l1.109375 0l0 3.03125q0.15625 -0.21875 0.59375 -0.390625q0.4375 -0.1875 0.859375 -0.1875q1.28125 0 2.0781403 0.890625q0.8125 0.890625 0.8125 2.25q0 1.5625 -0.8125 2.46875q-0.79689026 0.90625 -2.1718903 0.90625q-0.4375 0 -0.875 -0.171875q-0.421875 -0.171875 -0.65625 -0.40625zm0.171875 -4.515625l0 3.625q0 0.09375 0.40625 0.3125q0.421875 0.203125 0.640625 0.203125q1.140625 0 1.625 -0.53125q0.5 -0.546875 0.5 -1.828125q0 -1.078125 -0.578125 -1.671875q-0.578125 -0.59375 -1.546875 -0.59375q-0.203125 0 -0.578125 0.171875q-0.359375 0.171875 -0.46875 0.3125zm6.716812 -3.6875q0.296875 0 0.484375 0.203125q0.203125 0.203125 0.203125 0.484375q0 0.296875 -0.203125 0.5q-0.1875 0.203125 -0.484375 0.203125q-0.28125 0 -0.484375 -0.203125q-0.203125 -0.203125 -0.203125 -0.5q0 -0.28125 0.203125 -0.484375q0.203125 -0.203125 0.484375 -0.203125zm-0.609375 8.65625l0 -5.34375l-0.859375 0l0 -0.9375l1.96875 0l0 6.28125l-1.109375 0zm2.96875 -1.78125l0 -7.0625l1.125 0l0 6.875q0 0.515625 0.28125 0.8125q0.296875 0.28125 0.765625 0.28125l0 1.0q-2.171875 0 -2.171875 -1.90625zm4.6015625 -6.875q0.296875 0 0.484375 0.203125q0.203125 0.203125 0.203125 0.484375q0 0.296875 -0.203125 0.5q-0.1875 0.203125 -0.484375 0.203125q-0.28125 0 -0.484375 -0.203125q-0.203125 -0.203125 -0.203125 -0.5q0 -0.28125 0.203125 -0.484375q0.203125 -0.203125 0.484375 -0.203125zm-0.609375 8.65625l0 -5.34375l-0.859375 0l0 -0.9375l1.96875 0l0 6.28125l-1.109375 0zm3.28125 -5.390625l-0.71875 0l0 -0.890625l0.71875 0l0 -1.3125l1.109375 -0.421875l0 1.734375l1.734375 0l0 0.890625l-1.734375 0l0 3.109375q0 0.796875 0.265625 1.125q0.28125 0.328125 0.859375 0.328125q0.4375 0 0.890625 -0.203125l0.171875 0.96875q-0.703125 0.1875 -1.53125 0.1875q-0.734375 0 -1.25 -0.546875q-0.515625 -0.5625 -0.515625 -1.40625l0 -3.5625zm6.7578125 6.453125q-0.21875 0.609375 -0.921875 1.0q-0.6875 0.40625 -1.53125 0.40625l0 -1.0q0.6875 0 1.1875 -0.328125q0.5 -0.328125 0.5 -0.796875q0 -0.515625 -0.1875 -1.015625q-0.171875 -0.5 -0.46875 -1.234375l-1.6875 -4.375l1.125 0l1.84375 4.859375l1.671875 -4.859375l1.125 0l-2.65625 7.34375z" fill-rule="nonzero"/><path fill="#000000" fill-opacity="0.0" d="m200.51315 91.10143l80.409454 0l0 63.023613l-80.409454 0z" fill-rule="evenodd"/><path fill="#000000" d="m224.35167 111.230804l0.421875 -1.078125q0.328125 0.234375 0.8125 0.40625q0.5 0.15625 0.875 0.15625q0.6875 0 1.09375 -0.375q0.421875 -0.375 0.421875 -0.953125q0 -0.4375 -0.234375 -0.8125q-0.21875 -0.375 -1.15625 -0.8125l-0.6875 -0.3125q-0.875 -0.421875 -1.234375 -0.984375q-0.34375 -0.5625 -0.34375 -1.34375q0 -0.96875 0.671875 -1.59375q0.6875 -0.640625 1.75 -0.640625q1.421875 0 1.984375 0.46875l-0.34375 1.015625q-0.234375 -0.171875 -0.71875 -0.328125q-0.484375 -0.15625 -0.890625 -0.15625q-0.59375 0 -0.9375 0.34375q-0.34375 0.328125 -0.34375 0.875q0 0.328125 0.125 0.59375q0.125 0.265625 0.34375 0.453125q0.21875 0.171875 0.890625 0.5l0.703125 0.34375q0.890625 0.40625 1.234375 0.984375q0.359375 0.578125 0.359375 1.46875q0 0.96875 -0.78125 1.640625q-0.765625 0.671875 -2.078125 0.671875q-1.140625 0 -1.9375 -0.53125zm9.615234 -0.328125q-0.671875 0.84375 -2.046875 0.84375q-0.75 0 -1.296875 -0.53125q-0.53125 -0.546875 -0.53125 -1.34375q0 -0.953125 0.828125 -1.609375q0.84375 -0.671875 2.140625 -0.671875q0.34375 0 0.796875 0.15625q0 -1.515625 -1.359375 -1.515625q-1.046875 0 -1.609375 0.5625l-0.46875 -0.9375q0.3125 -0.265625 0.875 -0.4375q0.5625 -0.1875 1.078125 -0.1875q1.359375 0 1.96875 0.625q0.625 0.609375 0.625 1.96875l0 2.25q0 0.828125 0.5 1.09375l0 0.5625q-0.6875 0 -1.03125 -0.1875q-0.328125 -0.203125 -0.46875 -0.640625zm-0.109375 -2.359375q-0.53125 -0.125 -0.734375 -0.125q-0.84375 0 -1.390625 0.4375q-0.53125 0.4375 -0.53125 1.03125q0 0.96875 1.15625 0.96875q0.84375 0 1.5 -0.796875l0 -1.515625zm6.2578125 -4.78125q-0.34375 -0.109375 -0.640625 -0.109375q-0.5 0 -0.84375 0.390625q-0.328125 0.375 -0.328125 0.96875q0 0.15625 0.03125 0.328125l1.28125 0l0 0.9375l-1.28125 0l0 5.34375l-1.109375 0l0 -5.34375l-0.921875 0l0 -0.9375l0.921875 0q0 -1.203125 0.59375 -1.875q0.59375 -0.6875 1.5625 -0.6875q0.484375 0 1.046875 0.171875l-0.3125 0.8125zm6.326172 4.828125l-4.53125 0q0 1.109375 0.609375 1.6875q0.53125 0.515625 1.375 0.515625q0.953125 0 1.59375 -0.546875l0.46875 0.796875q-0.265625 0.265625 -0.796875 0.453125q-0.671875 0.25 -1.484375 0.25q-1.1875 0 -2.015625 -0.8125q-0.921875 -0.890625 -0.921875 -2.375q0 -1.5625 0.953125 -2.5q0.84375 -0.828125 2.0 -0.828125q1.34375 0 2.09375 0.75q0.75 0.734375 0.75 1.9375q0 0.359375 -0.09375 0.671875zm-2.703125 -2.421875q-0.75 0 -1.25 0.484375q-0.484375 0.453125 -0.546875 1.125l3.484375 0q0 -0.671875 -0.421875 -1.125q-0.46875 -0.484375 -1.265625 -0.484375zm4.357422 0.0625l-0.71875 0l0 -0.890625l0.71875 0l0 -1.3125l1.109375 -0.421875l0 1.734375l1.734375 0l0 0.890625l-1.734375 0l0 3.109375q0 0.796875 0.265625 1.125q0.28125 0.328125 0.859375 0.328125q0.4375 0 0.890625 -0.203125l0.171875 0.96875q-0.703125 0.1875 -1.53125 0.1875q-0.734375 0 -1.25 -0.546875q-0.515625 -0.5625 -0.515625 -1.40625l0 -3.5625zm6.7578125 6.453125q-0.21875 0.609375 -0.921875 1.0q-0.6875 0.40625 -1.53125 0.40625l0 -1.0q0.6875 0 1.1875 -0.328125q0.5 -0.328125 0.5 -0.796875q0 -0.515625 -0.1875 -1.015625q-0.171875 -0.5 -0.46875 -1.234375l-1.6875 -4.375l1.125 0l1.84375 4.859375l1.6718903 -4.859375l1.125 0l-2.6562653 7.34375z" fill-rule="nonzero"/><path fill="#000000" d="m241.91905 125.724556q-0.84375 0.421875 -2.046875 0.421875q-1.21875 0 -1.890625 -0.71875q-0.671875 -0.734375 -0.671875 -2.0625q0 -0.671875 0.203125 -1.171875q0.203125 -0.5 0.75 -1.03125q-0.828125 -0.828125 -0.828125 -1.703125q0 -0.90625 0.671875 -1.53125q0.671875 -0.640625 1.8125 -0.640625q1.203125 0 1.859375 0.53125l-0.484375 0.90625q-0.65625 -0.5625 -1.1875 -0.5625q-1.5625 0 -1.5625 1.40625q0 0.765625 0.6875 1.296875l2.171875 0l0 -1.078125l1.109375 -0.421875l0 1.515625l1.46875 0l0 0.9375l-1.46875 0l0 1.921875q0 0.8125 0.21875 1.109375q0.21875 0.296875 0.75 0.296875q0.3125 0 0.75 -0.21875l0.15625 1.03125q-0.609375 0.1875 -1.40625 0.1875q-0.546875 0 -1.0625 -0.421875zm-0.515625 -1.546875l0 -2.359375l-2.359375 0q-0.5625 0.703125 -0.5625 1.5q0 1.828125 1.796875 1.828125q0.796875 0 1.1875 -0.296875q-0.0625 -0.265625 -0.0625 -0.671875z" fill-rule="nonzero"/><path fill="#000000" d="m214.70226 140.42143l0 -8.578125l1.171875 0l0 8.578125l-1.171875 0zm6.9179688 0l0 -3.65625q0 -1.0 -0.3125 -1.390625q-0.296875 -0.40625 -1.0 -0.40625q-0.390625 0 -0.8125 0.234375q-0.40625 0.21875 -0.625 0.546875l0 4.671875l-1.109375 0l0 -6.28125l0.75 0l0.359375 0.8125q0.546875 -0.921875 1.796875 -0.921875q2.0625 0 2.0625 2.5l0 3.890625l-1.109375 0zm7.4316406 -5.765625l-0.5625 0.78125q-0.15625 -0.171875 -0.59375 -0.3125q-0.4375 -0.15625 -0.84375 -0.15625q-0.90625 0 -1.453125 0.640625q-0.53125 0.625 -0.53125 1.734375q0 1.109375 0.546875 1.6875q0.546875 0.5625 1.515625 0.5625q0.75 0 1.515625 -0.578125l0.4375 0.9375q-0.890625 0.59375 -2.21875 0.59375q-1.28125 0 -2.125 -0.859375q-0.84375 -0.875 -0.84375 -2.34375q0 -1.5 0.875 -2.40625q0.875 -0.90625 2.390625 -0.90625q0.484375 0 1.046875 0.203125q0.5625 0.203125 0.84375 0.421875zm1.2851562 3.984375l0 -7.0625l1.125 0l0 6.875q0 0.515625 0.28125 0.8125q0.296875 0.28125 0.765625 0.28125l0 1.0q-2.171875 0 -2.171875 -1.90625zm4.5078125 -4.5l0 4.0q0 1.453125 1.265625 1.453125q0.546875 0 1.0 -0.3125q0.46875 -0.3125 0.609375 -0.734375l0 -4.40625l1.109375 0l0 6.28125l-1.109375 0l0 -0.875q-0.1875 0.375 -0.75 0.6875q-0.5625 0.3125 -1.109375 0.3125q-1.03125 0 -1.578125 -0.59375q-0.546875 -0.59375 -0.546875 -1.6875l0 -4.125l1.109375 0zm5.0878906 5.90625l0.40625 -1.0625q0.921875 0.609375 1.5 0.609375q1.03125 0 1.03125 -0.859375q0 -0.625 -1.0 -1.0625q-0.765625 -0.359375 -1.03125 -0.53125q-0.265625 -0.1875 -0.46875 -0.421875q-0.203125 -0.234375 -0.296875 -0.484375q-0.09375 -0.265625 -0.09375 -0.5625q0 -0.78125 0.5625 -1.203125q0.5625 -0.4375 1.46875 -0.4375q0.6875 0 1.734375 0.4375l-0.3125 1.03125q-0.671875 -0.53125 -1.34375 -0.53125q-0.390625 0 -0.671875 0.1875q-0.265625 0.1875 -0.265625 0.46875q0 0.609375 0.6875 0.921875l0.796875 0.359375q0.734375 0.328125 1.0625 0.765625q0.34375 0.421875 0.34375 1.0625q0 0.84375 -0.59375 1.328125q-0.59375 0.484375 -1.640625 0.484375q-1.0 0 -1.875 -0.5zm6.419922 -8.28125q0.296875 0 0.484375 0.203125q0.203125 0.203125 0.203125 0.484375q0 0.296875 -0.203125 0.5q-0.1875 0.203125 -0.484375 0.203125q-0.28125 0 -0.484375 -0.203125q-0.203125 -0.203125 -0.203125 -0.5q0 -0.28125 0.203125 -0.484375q0.203125 -0.203125 0.484375 -0.203125zm-0.609375 8.65625l0 -5.34375l-0.859375 0l0 -0.9375l1.96875 0l0 6.28125l-1.109375 0zm5.140625 0.125l-0.28125 0l-2.6875 -6.421875l1.21875 0l1.65625 4.390625l1.6875 -4.390625l1.171875 0l-2.765625 6.421875zm4.767578 -8.78125q0.296875 0 0.48439026 0.203125q0.203125 0.203125 0.203125 0.484375q0 0.296875 -0.203125 0.5q-0.18751526 0.203125 -0.48439026 0.203125q-0.28125 0 -0.484375 -0.203125q-0.203125 -0.203125 -0.203125 -0.5q0 -0.28125 0.203125 -0.484375q0.203125 -0.203125 0.484375 -0.203125zm-0.609375 8.65625l0 -5.34375l-0.859375 0l0 -0.9375l1.9687653 0l0 6.28125l-1.1093903 0zm3.2812653 -5.390625l-0.71875 0l0 -0.890625l0.71875 0l0 -1.3125l1.109375 -0.421875l0 1.734375l1.734375 0l0 0.890625l-1.734375 0l0 3.109375q0 0.796875 0.265625 1.125q0.28125 0.328125 0.859375 0.328125q0.4375 0 0.890625 -0.203125l0.171875 0.96875q-0.703125 0.1875 -1.53125 0.1875q-0.734375 0 -1.25 -0.546875q-0.515625 -0.5625 -0.515625 -1.40625l0 -3.5625zm6.7578125 6.453125q-0.21875 0.609375 -0.921875 1.0q-0.6875 0.40625 -1.53125 0.40625l0 -1.0q0.6875 0 1.1875 -0.328125q0.5 -0.328125 0.5 -0.796875q0 -0.515625 -0.1875 -1.015625q-0.171875 -0.5 -0.46875 -1.234375l-1.6875 -4.375l1.125 0l1.84375 4.859375l1.671875 -4.859375l1.125 0l-2.65625 7.34375z" fill-rule="nonzero"/><path fill="#000000" fill-opacity="0.0" d="m168.20998 216.12335l80.40944 0l0 33.921265l-80.40944 0z" fill-rule="evenodd"/><path fill="#000000" d="m183.93912 229.1121l0 2.390625l2.84375 0l0 0.984375l-2.84375 0l0 3.09375l3.890625 0l0 1.0625l-5.0625 0l0 -8.578125l5.125 0l0 1.046875l-3.953125 0zm8.568359 -0.328125q-0.34375 -0.109375 -0.640625 -0.109375q-0.5 0 -0.84375 0.390625q-0.328125 0.375 -0.328125 0.96875q0 0.15625 0.03125 0.328125l1.28125 0l0 0.9375l-1.28125 0l0 5.34375l-1.109375 0l0 -5.34375l-0.921875 0l0 -0.9375l0.921875 0q0 -1.203125 0.59375 -1.875q0.59375 -0.6875 1.5625 -0.6875q0.484375 0 1.046875 0.171875l-0.3125 0.8125zm4.435547 0q-0.34375 -0.109375 -0.640625 -0.109375q-0.5 0 -0.84375 0.390625q-0.328125 0.375 -0.328125 0.96875q0 0.15625 0.03125 0.328125l1.28125 0l0 0.9375l-1.28125 0l0 5.34375l-1.109375 0l0 -5.34375l-0.921875 0l0 -0.9375l0.921875 0q0 -1.203125 0.59375 -1.875q0.59375 -0.6875 1.5625 -0.6875q0.484375 0 1.046875 0.171875l-0.3125 0.8125zm2.1855469 -0.796875q0.296875 0 0.484375 0.203125q0.203125 0.203125 0.203125 0.484375q0 0.296875 -0.203125 0.5q-0.1875 0.203125 -0.484375 0.203125q-0.28125 0 -0.484375 -0.203125q-0.203125 -0.203125 -0.203125 -0.5q0 -0.28125 0.203125 -0.484375q0.203125 -0.203125 0.484375 -0.203125zm-0.609375 8.65625l0 -5.34375l-0.859375 0l0 -0.9375l1.96875 0l0 6.28125l-1.109375 0zm7.625 -5.765625l-0.5625 0.78125q-0.15625 -0.171875 -0.59375 -0.3125q-0.4375 -0.15625 -0.84375 -0.15625q-0.90625 0 -1.453125 0.640625q-0.53125 0.625 -0.53125 1.734375q0 1.109375 0.546875 1.6875q0.546875 0.5625 1.515625 0.5625q0.75 0 1.515625 -0.578125l0.4375 0.9375q-0.890625 0.59375 -2.21875 0.59375q-1.28125 0 -2.125 -0.859375q-0.84375 -0.875 -0.84375 -2.34375q0 -1.5 0.875 -2.40625q0.875 -0.90625 2.390625 -0.90625q0.484375 0 1.046875 0.203125q0.5625 0.203125 0.84375 0.421875zm2.3476562 -2.890625q0.296875 0 0.484375 0.203125q0.203125 0.203125 0.203125 0.484375q0 0.296875 -0.203125 0.5q-0.1875 0.203125 -0.484375 0.203125q-0.28125 0 -0.484375 -0.203125q-0.203125 -0.203125 -0.203125 -0.5q0 -0.28125 0.203125 -0.484375q0.203125 -0.203125 0.484375 -0.203125zm-0.609375 8.65625l0 -5.34375l-0.859375 0l0 -0.9375l1.96875 0l0 6.28125l-1.109375 0zm8.171875 -3.03125l-4.53125 0q0 1.109375 0.609375 1.6875q0.53125 0.515625 1.375 0.515625q0.953125 0 1.59375 -0.546875l0.46875 0.796875q-0.265625 0.265625 -0.796875 0.453125q-0.671875 0.25 -1.484375 0.25q-1.1875 0 -2.015625 -0.8125q-0.921875 -0.890625 -0.921875 -2.375q0 -1.5625 0.953125 -2.5q0.84375 -0.828125 2.0 -0.828125q1.34375 0 2.09375 0.75q0.75 0.734375 0.75 1.9375q0 0.359375 -0.09375 0.671875zm-2.703125 -2.421875q-0.75 0 -1.25 0.484375q-0.484375 0.453125 -0.546875 1.125l3.484375 0q0 -0.671875 -0.421875 -1.125q-0.46875 -0.484375 -1.265625 -0.484375zm7.826172 5.453125l0 -3.65625q0 -1.0 -0.3125 -1.390625q-0.296875 -0.40625 -1.0 -0.40625q-0.390625 0 -0.8125 0.234375q-0.40625 0.21875 -0.625 0.546875l0 4.671875l-1.109375 0l0 -6.28125l0.75 0l0.359375 0.8125q0.546875 -0.921875 1.796875 -0.921875q2.0625 0 2.0625 2.5l0 3.890625l-1.109375 0zm7.4316406 -5.765625l-0.5625 0.78125q-0.15625 -0.171875 -0.59375 -0.3125q-0.4375 -0.15625 -0.84375 -0.15625q-0.90625 0 -1.453125 0.640625q-0.53125 0.625 -0.53125 1.734375q0 1.109375 0.546875 1.6875q0.546875 0.5625 1.515625 0.5625q0.75 0 1.515625 -0.578125l0.4375 0.9375q-0.890625 0.59375 -2.21875 0.59375q-1.28125 0 -2.125 -0.859375q-0.84375 -0.875 -0.84375 -2.34375q0 -1.5 0.875 -2.40625q0.875 -0.90625 2.390625 -0.90625q0.484375 0 1.046875 0.203125q0.5625 0.203125 0.84375 0.421875zm3.5976562 6.828125q-0.21875 0.609375 -0.921875 1.0q-0.6875 0.40625 -1.53125 0.40625l0 -1.0q0.6875 0 1.1875 -0.328125q0.5 -0.328125 0.5 -0.796875q0 -0.515625 -0.1875 -1.015625q-0.171875 -0.5 -0.46875 -1.234375l-1.6875 -4.375l1.125 0l1.84375 4.859375l1.671875 -4.859375l1.125 0l-2.65625 7.34375z" fill-rule="nonzero"/><path fill="#000000" fill-opacity="0.0" d="m43.443123 216.12245l100.37795 0l0 33.921265l-100.37795 0z" fill-rule="evenodd"/><path fill="#000000" d="m58.802498 228.37683l-0.390625 1.0q-0.5625 -0.40625 -1.765625 -0.40625q-1.140625 0 -1.828125 0.96875q-0.671875 0.96875 -0.671875 2.5q0 1.46875 0.6875 2.390625q0.703125 0.90625 1.8125 0.90625q1.21875 0 1.859375 -0.859375l0.640625 0.890625q-1.015625 1.015625 -2.625 1.015625q-1.671875 0 -2.640625 -1.203125q-0.96875 -1.21875 -0.96875 -3.203125q0 -1.921875 1.03125 -3.1875q1.03125 -1.28125 2.671875 -1.28125q1.390625 0 2.1875 0.46875zm1.1933594 5.109375q0 -1.453125 0.78125 -2.34375q0.796875 -0.890625 2.0625 -0.890625q1.359375 0 2.09375 0.859375q0.75 0.859375 0.75 2.375q0 1.515625 -0.765625 2.40625q-0.765625 0.875 -2.078125 0.875q-1.34375 0 -2.09375 -0.890625q-0.75 -0.890625 -0.75 -2.390625zm1.171875 0q0 2.359375 1.671875 2.359375q0.78125 0 1.21875 -0.625q0.453125 -0.640625 0.453125 -1.734375q0 -2.328125 -1.671875 -2.328125q-0.75 0 -1.21875 0.625q-0.453125 0.609375 -0.453125 1.703125zm9.548828 3.15625l0 -3.9375q0 -0.703125 -0.34375 -1.109375q-0.34375 -0.40625 -0.96875 -0.40625q-0.40625 0 -0.8125 0.234375q-0.40625 0.234375 -0.625 0.546875l0 4.671875l-1.109375 0l0 -8.84375l1.109375 0l0 3.265625q0.21875 -0.359375 0.71875 -0.578125q0.5 -0.234375 1.015625 -0.234375q1.0 0 1.5625 0.65625q0.5625 0.65625 0.5625 1.796875l0 3.9375l-1.109375 0zm7.9785156 -3.03125l-4.53125 0q0 1.109375 0.609375 1.6875q0.53125 0.515625 1.375 0.515625q0.953125 0 1.59375 -0.546875l0.46875 0.796875q-0.265625 0.265625 -0.796875 0.453125q-0.671875 0.25 -1.484375 0.25q-1.1875 0 -2.015625 -0.8125q-0.921875 -0.890625 -0.921875 -2.375q0 -1.5625 0.953125 -2.5q0.84375 -0.828125 2.0 -0.828125q1.34375 0 2.09375 0.75q0.75 0.734375 0.75 1.9375q0 0.359375 -0.09375 0.671875zm-2.703125 -2.421875q-0.75 0 -1.25 0.484375q-0.484375 0.453125 -0.546875 1.125l3.484375 0q0 -0.671875 -0.421875 -1.125q-0.46875 -0.484375 -1.265625 -0.484375zm3.5449219 5.078125l0.40625 -1.0625q0.921875 0.609375 1.5 0.609375q1.03125 0 1.03125 -0.859375q0 -0.625 -1.0 -1.0625q-0.765625 -0.359375 -1.03125 -0.53125q-0.265625 -0.1875 -0.46875 -0.421875q-0.203125 -0.234375 -0.296875 -0.484375q-0.09375 -0.265625 -0.09375 -0.5625q0 -0.78125 0.5625 -1.203125q0.5625 -0.4375 1.46875 -0.4375q0.6875 0 1.734375 0.4375l-0.3125 1.03125q-0.671875 -0.53125 -1.34375 -0.53125q-0.390625 0 -0.671875 0.1875q-0.265625 0.1875 -0.265625 0.46875q0 0.609375 0.6875 0.921875l0.796875 0.359375q0.734375 0.328125 1.0625 0.765625q0.34375 0.421875 0.34375 1.0625q0 0.84375 -0.59375 1.328125q-0.59375 0.484375 -1.640625 0.484375q-1.0 0 -1.875 -0.5zm6.419922 -8.28125q0.296875 0 0.484375 0.203125q0.203125 0.203125 0.203125 0.484375q0 0.296875 -0.203125 0.5q-0.1875 0.203125 -0.484375 0.203125q-0.28125 0 -0.484375 -0.203125q-0.203125 -0.203125 -0.203125 -0.5q0 -0.28125 0.203125 -0.484375q0.203125 -0.203125 0.484375 -0.203125zm-0.609375 8.65625l0 -5.34375l-0.859375 0l0 -0.9375l1.96875 0l0 6.28125l-1.109375 0zm5.140625 0.125l-0.28125 0l-2.6875 -6.421875l1.21875 0l1.65625 4.390625l1.6875 -4.390625l1.171875 0l-2.765625 6.421875zm8.908203 -3.15625l-4.53125 0q0 1.109375 0.609375 1.6875q0.53125 0.515625 1.375 0.515625q0.953125 0 1.59375 -0.546875l0.46875 0.796875q-0.265625 0.265625 -0.796875 0.453125q-0.671875 0.25 -1.484375 0.25q-1.1875 0 -2.015625 -0.8125q-0.921875 -0.890625 -0.921875 -2.375q0 -1.5625 0.953125 -2.5q0.84375 -0.828125 2.0 -0.828125q1.34375 0 2.09375 0.75q0.75 0.734375 0.75 1.9375q0 0.359375 -0.09375 0.671875zm-2.703125 -2.421875q-0.75 0 -1.25 0.484375q-0.484375 0.453125 -0.546875 1.125l3.484375 0q0 -0.671875 -0.421875 -1.125q-0.46875 -0.484375 -1.265625 -0.484375zm7.826172 5.453125l0 -3.65625q0 -1.0 -0.3125 -1.390625q-0.296875 -0.40625 -1.0 -0.40625q-0.390625 0 -0.8125 0.234375q-0.40625 0.21875 -0.625 0.546875l0 4.671875l-1.109375 0l0 -6.28125l0.75 0l0.359375 0.8125q0.546875 -0.921875 1.796875 -0.921875q2.0625 0 2.0625 2.5l0 3.890625l-1.109375 0zm7.9785156 -3.03125l-4.53125 0q0 1.109375 0.609375 1.6875q0.53125 0.515625 1.375 0.515625q0.953125 0 1.59375 -0.546875l0.46875 0.796875q-0.265625 0.265625 -0.796875 0.453125q-0.671875 0.25 -1.484375 0.25q-1.1875 0 -2.015625 -0.8125q-0.921875 -0.890625 -0.921875 -2.375q0 -1.5625 0.953125 -2.5q0.84375 -0.828125 2.0 -0.828125q1.34375 0 2.09375 0.75q0.75 0.734375 0.75 1.9375q0 0.359375 -0.09375 0.671875zm-2.703125 -2.421875q-0.75 0 -1.25 0.484375q-0.484375 0.453125 -0.546875 1.125l3.484375 0q0 -0.671875 -0.421875 -1.125q-0.46875 -0.484375 -1.265625 -0.484375zm3.5449219 5.078125l0.40625 -1.0625q0.921875 0.609375 1.5 0.609375q1.03125 0 1.03125 -0.859375q0 -0.625 -1.0 -1.0625q-0.765625 -0.359375 -1.03125 -0.53125q-0.265625 -0.1875 -0.46875 -0.421875q-0.203125 -0.234375 -0.296875 -0.484375q-0.09375 -0.265625 -0.09375 -0.5625q0 -0.78125 0.5625 -1.203125q0.5625 -0.4375 1.46875 -0.4375q0.6875 0 1.734375 0.4375l-0.3125 1.03125q-0.671875 -0.53125 -1.34375 -0.53125q-0.390625 0 -0.671875 0.1875q-0.265625 0.1875 -0.265625 0.46875q0 0.609375 0.6875 0.921875l0.796875 0.359375q0.734375 0.328125 1.0625 0.765625q0.34375 0.421875 0.34375 1.0625q0 0.84375 -0.59375 1.328125q-0.59375 0.484375 -1.640625 0.484375q-1.0 0 -1.875 -0.5zm4.857422 0l0.40625 -1.0625q0.921875 0.609375 1.5 0.609375q1.03125 0 1.03125 -0.859375q0 -0.625 -1.0 -1.0625q-0.765625 -0.359375 -1.03125 -0.53125q-0.265625 -0.1875 -0.46875 -0.421875q-0.203125 -0.234375 -0.296875 -0.484375q-0.09375 -0.265625 -0.09375 -0.5625q0 -0.78125 0.5625 -1.203125q0.5625 -0.4375 1.46875 -0.4375q0.6875 0 1.734375 0.4375l-0.3125 1.03125q-0.671875 -0.53125 -1.34375 -0.53125q-0.390625 0 -0.671875 0.1875q-0.265625 0.1875 -0.265625 0.46875q0 0.609375 0.6875 0.921875l0.796875 0.359375q0.734375 0.328125 1.0625 0.765625q0.34375 0.421875 0.34375 1.0625q0 0.84375 -0.59375 1.328125q-0.59375 0.484375 -1.640625 0.484375q-1.0 0 -1.875 -0.5z" fill-rule="nonzero"/><path fill="#000000" fill-opacity="0.0" d="m-7.569554 98.37866l123.55906 0l0 48.472443l-123.55906 0z" fill-rule="evenodd"/><path fill="#000000" d="m25.77052 111.36741l0 2.390625l2.84375 0l0 0.984375l-2.84375 0l0 3.09375l3.890625 0l0 1.0625l-5.0625 0l0 -8.578125l5.125 0l0 1.046875l-3.953125 0zm9.912109 1.765625l-0.5625 0.78125q-0.15625 -0.171875 -0.59375 -0.3125q-0.4375 -0.15625 -0.84375 -0.15625q-0.90625 0 -1.453125 0.640625q-0.53125 0.625 -0.53125 1.734375q0 1.109375 0.546875 1.6875q0.546875 0.5625 1.515625 0.5625q0.75 0 1.515625 -0.578125l0.4375 0.9375q-0.890625 0.59375 -2.21875 0.59375q-1.28125 0 -2.125 -0.859375q-0.84375 -0.875 -0.84375 -2.34375q0 -1.5 0.875 -2.40625q0.875 -0.90625 2.390625 -0.90625q0.484375 0 1.046875 0.203125q0.5625 0.203125 0.84375 0.421875zm0.78515625 2.609375q0 -1.453125 0.78125 -2.34375q0.796875 -0.890625 2.0625 -0.890625q1.359375 0 2.09375 0.859375q0.75 0.859375 0.75 2.375q0 1.515625 -0.765625 2.40625q-0.765625 0.875 -2.078125 0.875q-1.34375 0 -2.09375 -0.890625q-0.75 -0.890625 -0.75 -2.390625zm1.171875 0q0 2.359375 1.671875 2.359375q0.78125 0 1.21875 -0.625q0.453125 -0.640625 0.453125 -1.734375q0 -2.328125 -1.671875 -2.328125q-0.75 0 -1.21875 0.625q-0.453125 0.609375 -0.453125 1.703125zm9.548828 3.15625l0 -3.65625q0 -1.0 -0.3125 -1.390625q-0.296875 -0.40625 -1.0 -0.40625q-0.390625 0 -0.8125 0.234375q-0.40625 0.21875 -0.625 0.546875l0 4.671875l-1.109375 0l0 -6.28125l0.75 0l0.359375 0.8125q0.546875 -0.921875 1.796875 -0.921875q2.0625 0 2.0625 2.5l0 3.890625l-1.109375 0zm2.2753906 -3.15625q0 -1.453125 0.78125 -2.34375q0.796875 -0.890625 2.0625 -0.890625q1.359375 0 2.09375 0.859375q0.75 0.859375 0.75 2.375q0 1.515625 -0.765625 2.40625q-0.765625 0.875 -2.078125 0.875q-1.34375 0 -2.09375 -0.890625q-0.75 -0.890625 -0.75 -2.390625zm1.171875 0q0 2.359375 1.671875 2.359375q0.78125 0 1.21875 -0.625q0.453125 -0.640625 0.453125 -1.734375q0 -2.328125 -1.671875 -2.328125q-0.75 0 -1.21875 0.625q-0.453125 0.609375 -0.453125 1.703125zm12.955078 3.15625l0 -3.96875q0 -1.484375 -1.28125 -1.484375q-0.40625 0 -0.765625 0.25q-0.34375 0.25 -0.484375 0.5625l0 4.640625l-1.109375 0l0 -4.453125q0 -0.46875 -0.34375 -0.734375q-0.34375 -0.265625 -0.921875 -0.265625q-0.34375 0 -0.71875 0.265625q-0.375 0.25 -0.53125 0.5625l0 4.625l-1.109375 0l0 -6.28125l0.71875 0l0.375 0.734375q0.640625 -0.84375 1.609375 -0.84375q1.34375 0 1.890625 0.828125q0.1875 -0.34375 0.6875 -0.578125q0.515625 -0.25 1.046875 -0.25q0.984375 0 1.5156212 0.578125q0.53125 0.578125 0.53125 1.609375l0 4.203125l-1.1093712 0zm3.8359337 -8.65625q0.296875 0 0.484375 0.203125q0.203125 0.203125 0.203125 0.484375q0 0.296875 -0.203125 0.5q-0.1875 0.203125 -0.484375 0.203125q-0.28125 0 -0.484375 -0.203125q-0.203125 -0.203125 -0.203125 -0.5q0 -0.28125 0.203125 -0.484375q0.203125 -0.203125 0.484375 -0.203125zm-0.609375 8.65625l0 -5.34375l-0.859375 0l0 -0.9375l1.96875 0l0 6.28125l-1.109375 0zm7.625 -5.765625l-0.5625 0.78125q-0.15625 -0.171875 -0.59375 -0.3125q-0.4375 -0.15625 -0.84375 -0.15625q-0.90625 0 -1.453125 0.640625q-0.53125 0.625 -0.53125 1.734375q0 1.109375 0.546875 1.6875q0.546875 0.5625 1.515625 0.5625q0.75 0 1.515625 -0.578125l0.4375 0.9375q-0.890625 0.59375 -2.21875 0.59375q-1.28125 0 -2.125 -0.859375q-0.84375 -0.875 -0.84375 -2.34375q0 -1.5 0.875 -2.40625q0.875 -0.90625 2.390625 -0.90625q0.484375 0 1.046875 0.203125q0.5625 0.203125 0.84375 0.421875zm4.7539062 5.046875q-0.671875 0.84375 -2.046875 0.84375q-0.75 0 -1.296875 -0.53125q-0.53125 -0.546875 -0.53125 -1.34375q0 -0.953125 0.828125 -1.609375q0.84375 -0.671875 2.140625 -0.671875q0.34375 0 0.796875 0.15625q0 -1.515625 -1.359375 -1.515625q-1.046875 0 -1.609375 0.5625l-0.46875 -0.9375q0.3125 -0.265625 0.875 -0.4375q0.5625 -0.1875 1.078125 -0.1875q1.359375 0 1.96875 0.625q0.625 0.609375 0.625 1.96875l0 2.25q0 0.828125 0.5 1.09375l0 0.5625q-0.6875 0 -1.03125 -0.1875q-0.328125 -0.203125 -0.46875 -0.640625zm-0.109375 -2.359375q-0.53125 -0.125 -0.734375 -0.125q-0.84375 0 -1.390625 0.4375q-0.53125 0.4375 -0.53125 1.03125q0 0.96875 1.15625 0.96875q0.84375 0 1.5 -0.796875l0 -1.515625zm2.9453125 1.296875l0 -7.0625l1.125 0l0 6.875q0 0.515625 0.28125 0.8125q0.296875 0.28125 0.765625 0.28125l0 1.0q-2.171875 0 -2.171875 -1.90625z" fill-rule="nonzero"/><path fill="#000000" d="m16.366222 125.033035l-0.390625 1.0q-0.5625 -0.40625 -1.765625 -0.40625q-1.140625 0 -1.828125 0.96875q-0.671875 0.96875 -0.671875 2.5q0 1.46875 0.6875 2.390625q0.703125 0.90625 1.8125 0.90625q1.21875 0 1.859375 -0.859375l0.640625 0.890625q-1.015625 1.015625 -2.625 1.015625q-1.671875 0 -2.640625 -1.203125q-0.96875 -1.21875 -0.96875 -3.203125q0 -1.921875 1.03125 -3.1875q1.03125 -1.28125 2.671875 -1.28125q1.390625 0 2.1875 0.46875zm1.1933594 5.109375q0 -1.453125 0.78125 -2.34375q0.796875 -0.890625 2.0625 -0.890625q1.359375 0 2.09375 0.859375q0.75 0.859375 0.75 2.375q0 1.515625 -0.765625 2.40625q-0.765625 0.875 -2.078125 0.875q-1.34375 0 -2.09375 -0.890625q-0.75 -0.890625 -0.75 -2.390625zm1.171875 0q0 2.359375 1.671875 2.359375q0.78125 0 1.21875 -0.625q0.453125 -0.640625 0.453125 -1.734375q0 -2.328125 -1.671875 -2.328125q-0.75 0 -1.21875 0.625q-0.453125 0.609375 -0.453125 1.703125zm12.955078 3.15625l0 -3.96875q0 -1.484375 -1.28125 -1.484375q-0.40625 0 -0.765625 0.25q-0.34375 0.25 -0.484375 0.5625l0 4.640625l-1.109375 0l0 -4.453125q0 -0.46875 -0.34375 -0.734375q-0.34375 -0.265625 -0.921875 -0.265625q-0.34375 0 -0.71875 0.265625q-0.375 0.25 -0.53125 0.5625l0 4.625l-1.109375 0l0 -6.28125l0.71875 0l0.375 0.734375q0.640625 -0.84375 1.609375 -0.84375q1.34375 0 1.890625 0.828125q0.1875 -0.34375 0.6875 -0.578125q0.515625 -0.25 1.046875 -0.25q0.984375 0 1.515625 0.578125q0.53125 0.578125 0.53125 1.609375l0 4.203125l-1.109375 0zm3.8046875 -0.34375l0 2.8125l-1.109375 0l0 -8.75l1.109375 0l0 0.515625q0.625 -0.625 1.53125 -0.625q1.328125 0 2.078125 0.828125q0.75 0.828125 0.75 2.4375q0 1.4375 -0.75 2.34375q-0.75 0.90625 -2.171875 0.90625q-0.40625 0 -0.859375 -0.140625q-0.453125 -0.15625 -0.578125 -0.328125zm0 -4.578125l0 3.65625q0.109375 0.15625 0.4375 0.296875q0.34375 0.140625 0.671875 0.140625q2.078125 0 2.078125 -2.34375q0 -1.1875 -0.5 -1.734375q-0.484375 -0.546875 -1.578125 -0.546875q-0.234375 0 -0.578125 0.171875q-0.328125 0.15625 -0.53125 0.359375zm10.857422 1.890625l-4.53125 0q0 1.109375 0.609375 1.6875q0.53125 0.515625 1.375 0.515625q0.953125 0 1.59375 -0.546875l0.46875 0.796875q-0.265625 0.265625 -0.796875 0.453125q-0.671875 0.25 -1.484375 0.25q-1.1875 0 -2.015625 -0.8125q-0.921875 -0.890625 -0.921875 -2.375q0 -1.5625 0.953125 -2.5q0.84375 -0.828125 2.0 -0.828125q1.34375 0 2.09375 0.75q0.75 0.734375 0.75 1.9375q0 0.359375 -0.09375 0.671875zm-2.703125 -2.421875q-0.75 0 -1.25 0.484375q-0.484375 0.453125 -0.546875 1.125l3.484375 0q0 -0.671875 -0.421875 -1.125q-0.46875 -0.484375 -1.265625 -0.484375zm4.357422 0.0625l-0.71875 0l0 -0.890625l0.71875 0l0 -1.3125l1.109375 -0.421875l0 1.734375l1.734375 0l0 0.890625l-1.734375 0l0 3.109375q0 0.796875 0.265625 1.125q0.28125 0.328125 0.859375 0.328125q0.4375 0 0.890625 -0.203125l0.171875 0.96875q-0.703125 0.1875 -1.53125 0.1875q-0.734375 0 -1.25 -0.546875q-0.515625 -0.5625 -0.515625 -1.40625l0 -3.5625zm5.5078125 -3.265625q0.296875 0 0.484375 0.203125q0.203125 0.203125 0.203125 0.484375q0 0.296875 -0.203125 0.5q-0.1875 0.203125 -0.484375 0.203125q-0.28125 0 -0.484375 -0.203125q-0.203125 -0.203125 -0.203125 -0.5q0 -0.28125 0.203125 -0.484375q0.203125 -0.203125 0.484375 -0.203125zm-0.609375 8.65625l0 -5.34375l-0.859375 0l0 -0.9375l1.96875 0l0 6.28125l-1.109375 0zm3.28125 -5.390625l-0.71875 0l0 -0.890625l0.71875 0l0 -1.3125l1.109375 -0.421875l0 1.734375l1.734375 0l0 0.890625l-1.734375 0l0 3.109375q0 0.796875 0.265625 1.125q0.28125 0.328125 0.859375 0.328125q0.4375 0 0.890625 -0.203125l0.171875 0.96875q-0.703125 0.1875 -1.53125 0.1875q-0.734375 0 -1.25 -0.546875q-0.515625 -0.5625 -0.515625 -1.40625l0 -3.5625zm5.5078125 -3.265625q0.296875 0 0.484375 0.203125q0.203125 0.203125 0.203125 0.484375q0 0.296875 -0.203125 0.5q-0.1875 0.203125 -0.484375 0.203125q-0.28125 0 -0.484375 -0.203125q-0.203125 -0.203125 -0.203125 -0.5q0 -0.28125 0.203125 -0.484375q0.203125 -0.203125 0.484375 -0.203125zm-0.609375 8.65625l0 -5.34375l-0.859375 0l0 -0.9375l1.96875 0l0 6.28125l-1.109375 0zm5.140621 0.125l-0.28125 0l-2.6874962 -6.421875l1.2187462 0l1.65625 4.390625l1.6875 -4.390625l1.171875 0l-2.765625 6.421875zm8.908203 -3.15625l-4.53125 0q0 1.109375 0.609375 1.6875q0.53125 0.515625 1.375 0.515625q0.953125 0 1.59375 -0.546875l0.46875 0.796875q-0.265625 0.265625 -0.796875 0.453125q-0.671875 0.25 -1.484375 0.25q-1.1875 0 -2.015625 -0.8125q-0.921875 -0.890625 -0.921875 -2.375q0 -1.5625 0.953125 -2.5q0.84375 -0.828125 2.0 -0.828125q1.34375 0 2.09375 0.75q0.75 0.734375 0.75 1.9375q0 0.359375 -0.09375 0.671875zm-2.703125 -2.421875q-0.75 0 -1.25 0.484375q-0.484375 0.453125 -0.546875 1.125l3.484375 0q0 -0.671875 -0.421875 -1.125q-0.46875 -0.484375 -1.265625 -0.484375zm7.826172 5.453125l0 -3.65625q0 -1.0 -0.3125 -1.390625q-0.296875 -0.40625 -1.0 -0.40625q-0.390625 0 -0.8125 0.234375q-0.40625 0.21875 -0.625 0.546875l0 4.671875l-1.109375 0l0 -6.28125l0.75 0l0.359375 0.8125q0.546875 -0.921875 1.796875 -0.921875q2.0625 0 2.0625 2.5l0 3.890625l-1.109375 0zm7.9785156 -3.03125l-4.53125 0q0 1.109375 0.609375 1.6875q0.53125 0.515625 1.375 0.515625q0.953125 0 1.59375 -0.546875l0.46875 0.796875q-0.265625 0.265625 -0.796875 0.453125q-0.671875 0.25 -1.484375 0.25q-1.1875 0 -2.015625 -0.8125q-0.921875 -0.890625 -0.921875 -2.375q0 -1.5625 0.953125 -2.5q0.84375 -0.828125 2.0 -0.828125q1.34375 0 2.09375 0.75q0.75 0.734375 0.75 1.9375q0 0.359375 -0.09375 0.671875zm-2.703125 -2.421875q-0.75 0 -1.25 0.484375q-0.484375 0.453125 -0.546875 1.125l3.484375 0q0 -0.671875 -0.421875 -1.125q-0.46875 -0.484375 -1.265625 -0.484375zm3.5449219 5.078125l0.40625 -1.0625q0.921875 0.609375 1.5 0.609375q1.03125 0 1.03125 -0.859375q0 -0.625 -1.0 -1.0625q-0.765625 -0.359375 -1.03125 -0.53125q-0.265625 -0.1875 -0.46875 -0.421875q-0.203125 -0.234375 -0.296875 -0.484375q-0.09375 -0.265625 -0.09375 -0.5625q0 -0.78125 0.5625 -1.203125q0.5625 -0.4375 1.46875 -0.4375q0.6875 0 1.734375 0.4375l-0.3125 1.03125q-0.671875 -0.53125 -1.34375 -0.53125q-0.390625 0 -0.671875 0.1875q-0.265625 0.1875 -0.265625 0.46875q0 0.609375 0.6875 0.921875l0.796875 0.359375q0.734375 0.328125 1.0625 0.765625q0.34375 0.421875 0.34375 1.0625q0 0.84375 -0.59375 1.328125q-0.59375 0.484375 -1.640625 0.484375q-1.0 0 -1.875 -0.5zm4.857422 0l0.40625 -1.0625q0.921875 0.609375 1.5 0.609375q1.03125 0 1.03125 -0.859375q0 -0.625 -1.0 -1.0625q-0.765625 -0.359375 -1.03125 -0.53125q-0.265625 -0.1875 -0.46875 -0.421875q-0.203125 -0.234375 -0.296875 -0.484375q-0.09375 -0.265625 -0.09375 -0.5625q0 -0.78125 0.5625 -1.203125q0.5625 -0.4375 1.46875 -0.4375q0.6875 0 1.734375 0.4375l-0.3125 1.03125q-0.671875 -0.53125 -1.34375 -0.53125q-0.390625 0 -0.671875 0.1875q-0.265625 0.1875 -0.265625 0.46875q0 0.609375 0.6875 0.921875l0.796875 0.359375q0.734375 0.328125 1.0625 0.765625q0.34375 0.421875 0.34375 1.0625q0 0.84375 -0.59375 1.328125q-0.59375 0.484375 -1.640625 0.484375q-1.0 0 -1.875 -0.5z" fill-rule="nonzero"/></g></svg>